{
  "accessors": [
    {
      "bufferView": 1,
      "componentType": 5126,
      "count": 1532,
      "max": [
        0.74493002891540527,
        3.1805698871612549,
        1.4180599451065063
      ],
      "min": [
        -0.74493002891540527,
        -3.2224400043487549,
        -1.4731400012969971
      ],
      "type": "VEC3"
    },
    {
      "bufferView": 1,
      "byteOffset": 18384,
      "componentType": 5126,
      "count": 1532,
      "max": [
        0.99822467565536499,
        0.99199599027633667,
        0.99952131509780884
      ],
      "min": [
        -0.99822467565536499,
        -0.99603939056396484,
        -0.99998128414154053
      ],
      "type": "VEC3"
    },
    {
      "bufferView": 0,
      "componentType": 5125,
      "count": 2238,
      "max": [
        1531
      ],
      "min": [
        0
      ],
      "type": "SCALAR"
    },
    {
      "bufferView": 1,
      "byteOffset": 36768,
      "componentType": 5126,
      "count": 1664,
      "max": [
        1.1556099653244019,
        3.4322900772094727,
        1.9706499576568604
      ],
      "min": [
        -1.1556099653244019,
        -2.5381500720977783,
        -2.5976800918579102
      ],
      "type": "VEC3"
    },
    {
      "bufferView": 1,
      "byteOffset": 56736,
      "componentType": 5126,
      "count": 1664,
      "max": [
        1,
        0.99930036067962646,
        0.99993336200714111
      ],
      "min": [
        -1,
        -0.99930036067962646,
        -0.99999964237213135
      ],
      "type": "VEC3"
    },
    {
      "bufferView": 0,
      "byteOffset": 8952,
      "componentType": 5125,
      "count": 2412,
      "max": [
        1663
      ],
      "min": [
        0
      ],
      "type": "SCALAR"
    }
  ],
  "asset": {
    "extras": {
      "author": "m.altay (https://sketchfab.com/altay16)",
      "license": "CC-BY-4.0 (http://creativecommons.org/licenses/by/4.0/)",
      "source": "https://sketchfab.com/3d-models/low-poly-elk-57f6633a35ab48849bf08676ac88d8a9",
      "title": "Low-poly Elk"
    },
    "generator": "Sketchfab-6.34.0",
    "version": "2.0"
  },
  "bufferViews": [
    {
      "buffer": 0,
      "byteLength": 18600,
      "byteOffset": 0,
      "name": "floatBufferViews",
      "target": 34963
    },
    {
      "buffer": 0,
      "byteLength": 76704,
      "byteOffset": 18600,
      "byteStride": 12,
      "name": "floatBufferViews",
      "target": 34962
    }
  ],
  "buffers": [
    {
      "byteLength": 95304,
      "uri": "scene.bin"
    }
  ],
  "extensionsRequired": [
    "KHR_materials_pbrSpecularGlossiness"
  ],
  "extensionsUsed": [
    "KHR_materials_pbrSpecularGlossiness"
  ],
  "materials": [
    {
      "doubleSided": true,
      "emissiveFactor": [
        0,
        0,
        0
      ],
      "extensions": {
        "KHR_materials_pbrSpecularGlossiness": {
          "diffuseFactor": [
            0.60532838499682162,
            0.27548857878811683,
            0.068664233114255041,
            1
          ],
          "glossinessFactor": 0,
          "specularFactor": [
            0,
            0,
            0
          ]
        }
      },
      "name": "Root"
    },
    {
      "doubleSided": true,
      "emissiveFactor": [
        0,
        0,
        0
      ],
      "extensions": {
        "KHR_materials_pbrSpecularGlossiness": {
          "diffuseFactor": [
            0.078151723946605731,
            0.027002514338338553,
            0.0024397565019965406,
            1
          ],
          "glossinessFactor": 0,
          "specularFactor": [
            0,
            0,
            0
          ]
        }
      },
      "name": "Material.001"
    }
  ],
  "meshes": [
    {
      "name": "Plane_0",
      "primitives": [
        {
          "attributes": {
            "NORMAL": 1,
            "POSITION": 0
          },
          "indices": 2,
          "material": 1,
          "mode": 4
        }
      ]
    },
    {
      "name": "Plane_2",
      "primitives": [
        {
          "attributes": {
            "NORMAL": 4,
            "POSITION": 3
          },
          "indices": 5,
          "material": 0,
          "mode": 4
        }
      ]
    }
  ],
  "nodes": [
    {
      "children": [
        1
      ],
      "name": "RootNode (gltf orientation matrix)",
      "rotation": [
        -0.70710678118654746,
        -0,
        -0,
        0.70710678118654757
      ]
    },
    {
      "children": [
        2
      ],
      "name": "RootNode (model correction matrix)"
    },
    {
      "children": [
        3,
        5
      ],
      "name": "Root"
    },
    {
      "children": [
        4
      ],
      "matrix": [
        0.94063000000000008,
        0.3355800000000001,
        0.051030000000000013,
        0,
        -0.23548000000000002,
        0.53688000000000002,
        0.81013000000000002,
        0,
        0.24446000000000004,
        -0.77405000000000002,
        0.58403000000000005,
        0,
        25.474050000000002,
        -8.8994800000000023,
        8.3600900000000014,
        1
      ],
      "name": "Lamp"
    },
    {
      "name": "Lamp"
    },
    {
      "children": [
        6,
        7
      ],
      "matrix": [
        1,
        0,
        0,
        0,
        0,
        1,
        0,
        0,
        0,
        0,
        1,
        0,
        23.744489999999999,
        -19.843429999999998,
        2.4562299999999997,
        1
      ],
      "name": "Plane"
    },
    {
      "mesh": 0,
      "name": "Plane_0"
    },
    {
      "mesh": 1,
      "name": "Plane_2"
    }
  ],
  "scene": 0,
  "scenes": [
    {
      "name": "OSG_Scene",
      "nodes": [
        0
      ]
    }
  ]
}

